<?xml version="1.0" encoding="utf-8"?>
<!-- Generator: Adobe Illustrator 15.0.0, SVG Export Plug-In . SVG Version: 6.00 Build 0)  -->
<!DOCTYPE svg PUBLIC "-//W3C//DTD SVG 1.1//EN" "http://www.w3.org/Graphics/SVG/1.1/DTD/svg11.dtd">
<svg version="1.1" id="Layer_1" xmlns="http://www.w3.org/2000/svg" xmlns:xlink="http://www.w3.org/1999/xlink" x="0px" y="0px"
	 width="300px" height="300px" viewBox="0 0 300 300" enable-background="new 0 0 300 300" xml:space="preserve">
<g>
	<path fill="none" d="M112.015,118.438h18.688c0,0,0.001,0,0.001-0.001h-18.691c0.705,0.403,1.332,0.884,1.874,1.408
		C113.345,119.322,112.719,118.84,112.015,118.438z"/>
	<rect x="130.949" y="90.315" fill="none" width="0" height="4.708"/>
	<path fill="none" d="M156.854,119.463c-0.146,0.095-0.271,0.245-0.389,0.355C156.584,119.708,156.708,119.559,156.854,119.463z"/>
	<path fill="none" d="M121.352,127.639c-1.561,0-2.427-1.066-4.189-3.732c-0.127-0.178-0.254-0.355-0.345-0.533
		c0.091,0.178,0.216,0.355,0.343,0.533C118.925,126.573,119.789,127.639,121.352,127.639c1.578,0,2.444-1.066,4.202-3.732
		C123.795,126.573,122.928,127.639,121.352,127.639z"/>
	<path fill="none" d="M148.977,83.384c10.185-6.043,12.854-12.264,11.788-16.264c-0.537-2.398-2.599-4.165-4.784-4.165
		c-1.614,0-3.061,1.044-4.283,2.924c-0.53,0.975-1.583,1.596-2.72,1.596c-1.144,0-2.21-0.621-2.78-1.596
		c-1.165-1.88-2.63-2.924-4.296-2.924c-2.151,0-4.166,1.767-4.77,4.165C136.103,71.12,138.769,77.341,148.977,83.384z"/>
	<rect x="148.939" y="109.095" fill="none" width="0.002" height="18.685"/>
	<rect x="130.949" y="101.512" fill="none" width="36.033" height="10.469"/>
	<path fill="none" d="M169.826,120.542c-0.725-0.803-1.597-1.524-2.649-2.104h18.795c0.001,0,0.001,0,0.002-0.001h-18.799
		C168.229,119.018,169.101,119.74,169.826,120.542z"/>
	<rect x="174.628" y="155.41" fill="none" width="29.504" height="0"/>
	<path fill="none" d="M197.197,160.562c-2.4,2.47-4.085,4.22-7.82,4.22l0,0C193.112,164.782,194.801,163.032,197.197,160.562
		c1.013-1.057,2.133-2.133,3.388-3.157C199.33,158.43,198.206,159.507,197.197,160.562z"/>
	<path fill="none" d="M182.543,121.457c0.839-1.068,1.857-2.083,3.117-2.861C184.4,119.374,183.382,120.387,182.543,121.457z"/>
	<path fill="none" d="M176.58,127.639c-0.205,0-0.443-0.002-0.668-0.08C176.137,127.637,176.375,127.639,176.58,127.639z"/>
	<path fill="none" d="M148.981,127.639c-1.31,0-2.123-0.711-3.367-2.488C146.858,126.928,147.67,127.639,148.981,127.639
		c1.148,0,1.949-0.608,3.013-2.037C150.93,127.029,150.129,127.639,148.981,127.639z"/>
	<path fill="none" d="M111.311,202.083c5.332,3.162,14.44,5.999,26.483,7.179C125.751,208.082,116.643,205.245,111.311,202.083
		L111.311,202.083z"/>
	<path fill="none" d="M108.555,164.782c0.979,0,1.844-0.13,2.583-0.379C110.398,164.652,109.534,164.782,108.555,164.782
		L108.555,164.782z"/>
	<path fill="none" d="M142.747,162.075c-0.068-0.075-0.138-0.091-0.172-0.091c0.906,0.88,1.795,1.602,2.861,2.065
		c0.355,0.147,0.711,0.247,1.117,0.423c-0.405-0.176-0.762-0.276-1.117-0.425C144.632,163.406,143.745,162.787,142.747,162.075z"/>
	<path fill="none" d="M184.287,203.336c-3.138,1.488-7.236,2.906-12.147,3.993C177.051,206.242,181.149,204.824,184.287,203.336z"/>
	<rect x="108.535" y="140.639" fill="none" width="0" height="29.542"/>
	<path fill="none" d="M187.122,126.091c-0.243,0.391-0.589,0.872-0.944,1.413c-1.88,2.801-4.44,6.62-9.598,6.62
		c-5.152,0-7.756-3.819-9.598-6.62c-1.777-2.646-2.663-3.741-4.255-3.741c-0.762,0-1.433,0.321-2.118,0.965
		c-0.2,0.245-0.439,0.51-0.736,0.866c0.298-0.355,0.536-0.621,0.74-0.868c-0.56,0.69-1.099,1.473-1.686,2.247
		c0.288-0.483,0.59-0.867,0.856-1.226c-0.267,0.359-0.569,0.743-0.856,1.224c-0.121,0.167-0.284,0.342-0.361,0.534
		c-1.893,2.801-4.381,6.62-9.585,6.62c-5.211,0-7.735-3.819-9.594-6.62c-1.771-2.646-2.66-3.741-4.238-3.741
		c-0.465,0-0.824,0.104-1.217,0.311c-0.119,0.098-0.226,0.188-0.317,0.292c-0.62,0.636-1.204,1.264-1.795,1.876
		c0.803-1.105,1.438-1.807,2.113-2.168c-0.675,0.361-1.31,1.061-2.113,2.166c-0.267,0.389-0.56,0.778-0.871,1.265
		c-1.864,2.801-4.423,6.62-9.598,6.62c-5.158,0-7.729-3.819-9.598-6.62c-0.355-0.54-0.669-1.022-0.976-1.41v22.832h76.344V126.091z"
		/>
	<path fill="none" d="M201.818,165.069c-2.663,2.782-6.043,6.157-12.441,6.157s-9.772-3.375-12.441-6.157
		c-2.312-2.397-4.085-4.151-7.787-4.151c-3.657,0-5.365,1.754-7.77,4.151c-2.681,2.782-5.971,6.157-12.402,6.157
		s-9.761-3.375-12.428-6.157c-2.401-2.397-4.089-4.151-7.82-4.151c-3.651,0-5.398,1.754-7.764,4.151
		c-2.686,2.782-6.012,6.157-12.411,6.157c-6.423,0-9.774-3.375-12.44-6.157c-1.548-1.584-2.842-2.905-4.533-3.616v34.125h114.797
		v-34.125C204.662,162.164,203.397,163.483,201.818,165.069z"/>
	<path fill="none" d="M140.368,159.735c0.27,0.296,0.533,0.561,0.803,0.827c0.171,0.18,0.294,0.325,0.441,0.455
		c-0.146-0.13-0.269-0.275-0.441-0.455C140.901,160.297,140.638,160.031,140.368,159.735z"/>
	<path fill="#FFFFFF" d="M225.279,195.578h-12.441v-43.389c0-1.796-1.422-3.264-3.199-3.264h-15.996v-33.728
		c0-1.777-1.454-3.216-3.251-3.216h-16.943V87.094c0-1.792-1.472-3.265-3.264-3.265h-10.829c2.257-1.927,4.038-3.946,5.319-6.049
		c3.218-5.15,3.079-9.503,2.397-12.26c-1.331-5.322-5.937-9.02-11.092-9.02c-2.509,0-4.994,0.946-7,2.711
		c-2.037-1.766-4.49-2.711-7.08-2.711c-5.151,0-9.707,3.698-11.039,9.02c-0.71,2.756-0.869,7.109,2.383,12.26
		c1.323,2.103,3.1,4.123,5.282,6.049h-10.823c-1.795,0-3.241,1.471-3.241,3.265v24.887H107.57c-1.796,0-3.265,1.44-3.265,3.217
		v33.728H88.318c-1.796,0-3.224,1.468-3.224,3.264v43.389H72.647c-1.795,0-3.265,1.442-3.265,3.234c0,1.796,1.47,3.271,3.265,3.271
		h28.976c5.6,8.046,21.169,12.155,35.434,13.577v4.977l-15.978,12.083c-1.148,0.792-1.591,2.272-1.149,3.558
		c0.446,1.331,1.689,2.223,3.087,2.223h51.928c1.367,0,2.595-0.89,3.057-2.223c0.412-1.285,0-2.767-1.119-3.558l-15.977-12.083
		v-4.977c14.252-1.422,29.81-5.531,35.405-13.577h28.968c1.777,0,3.225-1.475,3.225-3.271
		C228.504,197.021,227.057,195.578,225.279,195.578z M204.132,155.41L204.132,155.41L204.132,155.41
		c-1.335,0.531-2.488,1.242-3.547,1.995c-1.255,1.024-2.375,2.101-3.388,3.157c-2.396,2.47-4.085,4.22-7.82,4.22l0,0l0,0
		c-3.713,0-5.38-1.749-7.82-4.22c-1.777-1.799-3.845-3.919-6.929-5.152l0,0l0,0H204.132z M185.974,118.438
		c-0.001,0-0.001,0-0.002,0.001L185.974,118.438c-0.148,0.047-0.17,0.126-0.313,0.158c-1.26,0.778-2.278,1.793-3.117,2.861
		c-0.636,0.844-1.235,1.669-1.739,2.45c-1.766,2.666-2.63,3.732-4.224,3.732c-0.205,0-0.443-0.002-0.668-0.08
		c-1.18-0.276-2.028-1.37-3.592-3.653c-0.705-1.066-1.469-2.258-2.494-3.364c-0.726-0.802-1.597-1.524-2.651-2.105H185.974z
		 M137.131,67.12c0.604-2.398,2.618-4.165,4.77-4.165c1.667,0,3.132,1.044,4.296,2.924c0.569,0.975,1.636,1.596,2.78,1.596
		c1.138,0,2.19-0.621,2.72-1.596c1.223-1.88,2.669-2.924,4.283-2.924c2.186,0,4.247,1.767,4.784,4.165
		c1.066,4-1.603,10.221-11.788,16.264C138.769,77.341,136.103,71.12,137.131,67.12z M130.949,90.315L130.949,90.315h36.033v4.708
		h-36.033l0,0V90.315z M130.949,101.512h36.033v10.469h-36.033V101.512z M158.285,118.438c-0.51,0.312-0.945,0.651-1.431,1.025
		c-0.146,0.095-0.271,0.245-0.389,0.355c-1.389,1.255-2.455,2.781-3.326,4.088c-0.386,0.67-0.791,1.244-1.146,1.696
		c-1.064,1.429-1.865,2.037-3.013,2.037c-1.311,0-2.123-0.711-3.367-2.488c-0.269-0.355-0.536-0.784-0.875-1.244
		c-1.214-1.845-2.768-4.11-5.143-5.468h0.001c0,0-0.001,0-0.001-0.001L158.285,118.438c-0.001,0-0.001,0-0.002,0H158.285z
		 M130.704,118.438c0,0-0.001,0-0.001,0.001L130.704,118.438c-2.375,1.358-3.929,3.624-5.145,5.469c-0.002,0-0.004,0-0.006,0
		c-1.757,2.666-2.624,3.732-4.202,3.732c-1.563,0-2.426-1.066-4.191-3.732c-0.126-0.178-0.252-0.355-0.343-0.533
		c-0.798-1.157-1.734-2.423-2.931-3.528c-0.542-0.523-1.169-1.005-1.874-1.408H130.704z M110.778,126.094
		c0.307,0.388,0.62,0.87,0.976,1.41c1.868,2.801,4.44,6.62,9.598,6.62c5.175,0,7.733-3.819,9.598-6.62
		c0.311-0.487,0.604-0.876,0.871-1.265c0.803-1.104,1.438-1.804,2.113-2.166c0.393-0.208,0.752-0.311,1.217-0.311
		c1.578,0,2.466,1.095,4.238,3.741c1.859,2.801,4.383,6.62,9.594,6.62c5.205,0,7.693-3.819,9.585-6.62
		c0.077-0.191,0.24-0.367,0.361-0.534c0.287-0.481,0.59-0.865,0.856-1.224c0.065-0.062,0.089-0.113,0.089-0.153
		c0.297-0.355,0.536-0.621,0.736-0.866c0.686-0.644,1.356-0.965,2.118-0.965c1.592,0,2.478,1.095,4.255,3.741
		c1.842,2.801,4.445,6.62,9.598,6.62c5.157,0,7.718-3.819,9.598-6.62c0.355-0.541,0.701-1.022,0.944-1.413v22.835h-76.344V126.094z
		 M163.743,155.41c-3.159,1.237-5.205,3.354-7.001,5.152c-2.376,2.474-4.111,4.222-7.766,4.222c-0.934,0-1.708-0.132-2.423-0.312
		c-0.406-0.176-0.762-0.275-1.117-0.423c-1.066-0.464-1.955-1.186-2.861-2.065c-0.003,0-0.007,0-0.011,0
		c-0.327-0.355-0.624-0.659-0.952-0.967c-0.147-0.13-0.271-0.275-0.441-0.455c-0.27-0.267-0.533-0.531-0.803-0.827
		c-1.6-1.616-3.53-3.265-6.155-4.325h0.001h29.525H163.743z M123.307,155.41L123.307,155.41L123.307,155.41
		c-3.109,1.233-5.187,3.354-6.979,5.152c-1.73,1.777-3.133,3.199-5.19,3.841c-0.738,0.249-1.604,0.379-2.583,0.379l0,0
		c-0.001,0-0.001,0-0.001,0c-3.723,0-5.419-1.749-7.818-4.22c-1.778-1.805-3.866-3.923-6.97-5.152h0.003c-0.001,0-0.003,0-0.004,0
		H123.307z M184.287,203.336c-3.138,1.488-7.236,2.906-12.147,3.993c-4.266,0.994-9.067,1.739-14.438,2.112
		c-0.001,0-0.001,0-0.002,0c-0.021,0-0.039,0-0.059,0c-1.799,0-3.271,1.422-3.271,3.199v9.598c0,1.066,0.525,1.953,1.33,2.627
		l9.504,7.146h-32.52l9.552-7.146c0.797-0.674,1.275-1.561,1.275-2.627v-9.598c0-1.777-1.451-3.199-3.229-3.199c0,0-0.002,0-0.022,0
		c-0.848-0.057-1.669-0.167-2.466-0.18c-12.043-1.18-21.152-4.017-26.483-7.179h0h75.318
		C185.92,202.508,185.111,202.895,184.287,203.336z M206.378,195.578H91.581v-34.125c1.691,0.711,2.985,2.032,4.533,3.616
		c2.666,2.782,6.018,6.157,12.44,6.157c6.398,0,9.725-3.375,12.411-6.157c2.366-2.397,4.113-4.151,7.764-4.151
		c3.73,0,5.419,1.754,7.82,4.151c2.667,2.782,5.997,6.157,12.428,6.157s9.721-3.375,12.402-6.157
		c2.404-2.397,4.112-4.151,7.77-4.151c3.702,0,5.475,1.754,7.787,4.151c2.669,2.782,6.043,6.157,12.441,6.157
		s9.778-3.375,12.441-6.157c1.579-1.586,2.844-2.905,4.56-3.616V195.578z"/>
	<path fill="#FDB9D0" d="M131.82,126.242c0.592-0.613,1.175-1.241,1.795-1.876c0.091-0.104,0.199-0.194,0.317-0.292
		C133.257,124.436,132.623,125.137,131.82,126.242z"/>
	<path fill="#FDB9D0" d="M160.613,124.726c-0.204,0.247-0.442,0.512-0.74,0.868c0,0.04-0.023,0.09-0.089,0.153
		c-0.267,0.359-0.568,0.743-0.856,1.226C159.515,126.199,160.054,125.416,160.613,124.726z"/>
</g>
</svg>
